# 3ds Max Wavefront OBJ Exporter v0.97b - (c)2007 guruware
# File Created: 09.05.2011 00:05:49

#
# object Cylinder001
#

v  0.3750 -0.5000 0.0000
v  0.2652 -0.5000 -0.2652
v  0.2652 -0.4500 -0.2652
v  0.3750 -0.4500 0.0000
v  -0.0000 -0.5000 -0.3750
v  0.0000 -0.4500 -0.3750
v  -0.2652 -0.5000 -0.2652
v  -0.2652 -0.4500 -0.2652
v  -0.3750 -0.5000 0.0000
v  -0.3750 -0.4500 0.0000
v  -0.2652 -0.5000 0.2652
v  -0.2652 -0.4500 0.2652
v  0.0000 -0.5000 0.3750
v  0.0000 -0.4500 0.3750
v  0.2652 -0.5000 0.2652
v  0.2652 -0.4500 0.2652
v  0.3500 -0.4500 -0.0000
v  0.2475 -0.4500 -0.2475
v  0.2475 -0.0250 -0.2475
v  0.3500 -0.0250 -0.0000
v  -0.0000 -0.4500 -0.3500
v  -0.0000 -0.0250 -0.3500
v  -0.2475 -0.4500 -0.2475
v  -0.2475 -0.0250 -0.2475
v  -0.3500 -0.4500 0.0000
v  -0.3500 -0.0250 0.0000
v  -0.2475 -0.4500 0.2475
v  -0.2475 -0.0250 0.2475
v  0.0000 -0.4500 0.3500
v  0.0000 -0.0250 0.3500
v  0.2475 -0.4500 0.2475
v  0.2475 -0.0250 0.2475
v  0.3750 -0.0250 0.0000
v  0.2652 -0.0250 -0.2652
v  0.2652 0.0250 -0.2652
v  0.3750 0.0250 0.0000
v  -0.0000 -0.0250 -0.3750
v  -0.0000 0.0250 -0.3750
v  -0.2652 -0.0250 -0.2652
v  -0.2652 0.0250 -0.2652
v  -0.3750 -0.0250 0.0000
v  -0.3750 0.0250 0.0000
v  -0.2652 -0.0250 0.2652
v  -0.2652 0.0250 0.2652
v  0.0000 -0.0250 0.3750
v  0.0000 0.0250 0.3750
v  0.2652 -0.0250 0.2652
v  0.2652 0.0250 0.2652
v  0.3500 0.0250 -0.0000
v  0.2475 0.0250 -0.2475
v  0.2475 0.4500 -0.2475
v  0.3500 0.4500 -0.0000
v  -0.0000 0.0250 -0.3500
v  -0.0000 0.4500 -0.3500
v  -0.2475 0.0250 -0.2475
v  -0.2475 0.4500 -0.2475
v  -0.3500 0.0250 0.0000
v  -0.3500 0.4500 0.0000
v  -0.2475 0.0250 0.2475
v  -0.2475 0.4500 0.2475
v  0.0000 0.0250 0.3500
v  0.0000 0.4500 0.3500
v  0.2475 0.0250 0.2475
v  0.2475 0.4500 0.2475
v  0.3750 0.4500 0.0000
v  0.2652 0.4500 -0.2652
v  0.2652 0.5000 -0.2652
v  0.3750 0.5000 0.0000
v  -0.0000 0.4500 -0.3750
v  -0.0000 0.5000 -0.3750
v  -0.2652 0.4500 -0.2652
v  -0.2652 0.5000 -0.2652
v  -0.3750 0.4500 0.0000
v  -0.3750 0.5000 0.0000
v  -0.2652 0.4500 0.2652
v  -0.2652 0.5000 0.2652
v  0.0000 0.4500 0.3750
v  0.0000 0.5000 0.3750
v  0.2652 0.4500 0.2652
v  0.2652 0.5000 0.2652
v  0.0000 -0.5000 0.3500
v  -0.2475 -0.5000 0.2475
v  -0.3500 -0.5000 0.0000
v  -0.2475 -0.5000 -0.2475
v  -0.0000 -0.5000 -0.3500
v  0.2475 -0.5000 -0.2475
v  0.3500 -0.5000 -0.0000
v  0.2475 -0.5000 0.2475
v  0.2475 0.5000 -0.2475
v  -0.0000 0.5000 -0.3500
v  -0.2475 0.5000 -0.2475
v  -0.3500 0.5000 0.0000
v  -0.2475 0.5000 0.2475
v  0.0000 0.5000 0.3500
v  0.2475 0.5000 0.2475
v  0.3500 0.5000 -0.0000
# 96 vertices

vn 1.0000 0.0000 -0.0000
vn 0.7071 0.0000 -0.7071
vn 0.7071 -0.0000 -0.7071
vn -0.0000 0.0000 -1.0000
vn 0.0000 0.0000 -1.0000
vn -0.7071 -0.0000 -0.7071
vn -0.7071 0.0000 -0.7071
vn -1.0000 0.0000 0.0000
vn -1.0000 -0.0000 0.0000
vn -0.7071 0.0000 0.7071
vn 0.0000 -0.0000 1.0000
vn 0.7071 0.0000 0.7071
vn 1.0000 -0.0000 -0.0000
vn 1.0000 -0.0000 0.0000
vn -0.0000 -0.0000 -1.0000
vn -0.7071 -0.0000 0.7071
vn -0.0000 0.0000 1.0000
vn 0.7071 -0.0000 0.7071
vn 1.0000 0.0000 0.0000
vn -1.0000 0.0000 -0.0000
vn 0.0000 0.0000 1.0000
vn -0.0000 -0.0000 1.0000
vn 0.0000 -1.0000 -0.0000
vn 0.0000 1.0000 -0.0000
vn -0.0000 -1.0000 0.0000
vn 0.0000 -1.0000 0.0000
vn -0.0000 -1.0000 -0.0000
vn 0.0000 1.0000 0.0000
vn -0.0000 1.0000 -0.0000
vn -0.0000 1.0000 0.0000
# 30 vertex normals

vt 0.0207 0.8636 0.0000
vt 0.0207 0.9824 0.0000
vt 0.0000 0.9824 0.0000
vt 0.0000 0.8636 0.0000
vt 0.5465 0.7806 0.0000
vt 0.5465 0.8903 0.0000
vt 0.5258 0.8903 0.0000
vt 0.5258 0.7806 0.0000
vt 0.5465 1.0000 0.0000
vt 0.5258 1.0000 0.0000
vt 0.9482 0.2879 0.0000
vt 0.9482 0.4066 0.0000
vt 0.9275 0.4066 0.0000
vt 0.9275 0.2879 0.0000
vt 0.9482 0.4906 0.0000
vt 0.9275 0.4906 0.0000
vt 0.8843 0.0000 0.0000
vt 0.8843 0.1097 0.0000
vt 0.8636 0.1097 0.0000
vt 0.8636 0.0000 0.0000
vt 0.8843 0.2194 0.0000
vt 0.8636 0.2194 0.0000
vt 0.9482 0.6975 0.0000
vt 0.9482 0.8163 0.0000
vt 0.9275 0.8163 0.0000
vt 0.9275 0.6975 0.0000
vt 0.4637 0.6781 0.0000
vt 0.4637 0.7806 0.0000
vt 0.2879 0.7806 0.0000
vt 0.2879 0.6781 0.0000
vt 0.4637 0.8830 0.0000
vt 0.2879 0.8830 0.0000
vt 0.4637 0.9854 0.0000
vt 0.2879 0.9854 0.0000
vt 0.7516 0.2879 0.0000
vt 0.7516 0.3903 0.0000
vt 0.5757 0.3903 0.0000
vt 0.5757 0.2879 0.0000
vt 0.7516 0.4927 0.0000
vt 0.5757 0.4927 0.0000
vt 0.9275 0.4927 0.0000
vt 0.9275 0.5951 0.0000
vt 0.7516 0.5951 0.0000
vt 0.7516 0.6975 0.0000
vt 0.4637 0.5757 0.0000
vt 0.2879 0.5757 0.0000
vt 0.4844 0.8903 0.0000
vt 0.4844 1.0000 0.0000
vt 0.4637 1.0000 0.0000
vt 0.4637 0.8903 0.0000
vt 0.9464 0.0000 0.0000
vt 0.9464 0.1097 0.0000
vt 0.9257 0.1097 0.0000
vt 0.9257 0.0000 0.0000
vt 0.9464 0.2194 0.0000
vt 0.9257 0.2194 0.0000
vt 0.9050 0.1097 0.0000
vt 0.9050 0.0000 0.0000
vt 0.9050 0.2194 0.0000
vt 0.5051 0.8903 0.0000
vt 0.5051 0.7806 0.0000
vt 0.5051 1.0000 0.0000
vt 0.4844 0.7806 0.0000
vt 0.9275 0.3903 0.0000
vt 0.7516 0.7999 0.0000
vt 0.5757 0.7999 0.0000
vt 0.5757 0.6975 0.0000
vt 0.7516 0.9023 0.0000
vt 0.5757 0.9023 0.0000
vt 0.5757 0.5951 0.0000
vt 0.9275 0.7999 0.0000
vt 0.9275 0.9023 0.0000
vt 0.4844 0.5757 0.0000
vt 0.4844 0.6945 0.0000
vt 0.4637 0.6945 0.0000
vt 0.4844 0.7785 0.0000
vt 0.4637 0.7785 0.0000
vt 0.9482 0.4927 0.0000
vt 0.9482 0.6114 0.0000
vt 0.9275 0.6114 0.0000
vt 0.9482 0.6954 0.0000
vt 0.9275 0.6954 0.0000
vt 0.2975 0.1980 0.0000
vt 0.2986 0.0872 0.0000
vt 0.3777 0.0096 0.0000
vt 0.4885 0.0107 0.0000
vt 0.5661 0.0898 0.0000
vt 0.5651 0.2007 0.0000
vt 0.4859 0.2783 0.0000
vt 0.3751 0.2772 0.0000
vt 0.0872 0.8529 0.0000
vt 0.0096 0.7738 0.0000
vt 0.0107 0.6629 0.0000
vt 0.0898 0.5853 0.0000
vt 0.2007 0.5864 0.0000
vt 0.2783 0.6656 0.0000
vt 0.2772 0.7764 0.0000
vt 0.1980 0.8540 0.0000
vt 0.5746 0.2047 0.0000
vt 0.4898 0.2879 0.0000
vt 0.5757 0.0860 0.0000
vt 0.4926 0.0012 0.0000
vt 0.3738 0.0000 0.0000
vt 0.2890 0.0832 0.0000
vt 0.2879 0.2019 0.0000
vt 0.3710 0.2867 0.0000
vt 0.7764 0.0107 0.0000
vt 0.6656 0.0096 0.0000
vt 0.6617 0.0000 0.0000
vt 0.7805 0.0012 0.0000
vt 0.5864 0.0872 0.0000
vt 0.5769 0.0832 0.0000
vt 0.5853 0.1980 0.0000
vt 0.5757 0.2019 0.0000
vt 0.6629 0.2772 0.0000
vt 0.6589 0.2867 0.0000
vt 0.7738 0.2783 0.0000
vt 0.7776 0.2879 0.0000
vt 0.8529 0.2007 0.0000
vt 0.8624 0.2047 0.0000
vt 0.8540 0.0898 0.0000
vt 0.8636 0.0860 0.0000
vt 0.1980 0.2783 0.0000
vt 0.2772 0.2007 0.0000
vt 0.2867 0.2047 0.0000
vt 0.2019 0.2879 0.0000
vt 0.2783 0.0898 0.0000
vt 0.2879 0.0860 0.0000
vt 0.2007 0.0107 0.0000
vt 0.2047 0.0012 0.0000
vt 0.0898 0.0096 0.0000
vt 0.0860 0.0000 0.0000
vt 0.0107 0.0872 0.0000
vt 0.0012 0.0832 0.0000
vt 0.0096 0.1980 0.0000
vt 0.0000 0.2019 0.0000
vt 0.0872 0.2772 0.0000
vt 0.0832 0.2867 0.0000
vt 0.3751 0.5651 0.0000
vt 0.4859 0.5661 0.0000
vt 0.4898 0.5757 0.0000
vt 0.3710 0.5746 0.0000
vt 0.5651 0.4885 0.0000
vt 0.5746 0.4926 0.0000
vt 0.5661 0.3777 0.0000
vt 0.5757 0.3738 0.0000
vt 0.4885 0.2986 0.0000
vt 0.4926 0.2890 0.0000
vt 0.3777 0.2975 0.0000
vt 0.3738 0.2879 0.0000
vt 0.2986 0.3751 0.0000
vt 0.2890 0.3710 0.0000
vt 0.2975 0.4859 0.0000
vt 0.2879 0.4898 0.0000
vt 0.1980 0.5661 0.0000
vt 0.2772 0.4885 0.0000
vt 0.2867 0.4926 0.0000
vt 0.2019 0.5757 0.0000
vt 0.2783 0.3777 0.0000
vt 0.2879 0.3738 0.0000
vt 0.2007 0.2986 0.0000
vt 0.2047 0.2890 0.0000
vt 0.0898 0.2975 0.0000
vt 0.0860 0.2879 0.0000
vt 0.0107 0.3751 0.0000
vt 0.0012 0.3710 0.0000
vt 0.0096 0.4859 0.0000
vt 0.0000 0.4898 0.0000
vt 0.0872 0.5651 0.0000
vt 0.0832 0.5746 0.0000
vt 0.2019 0.8636 0.0000
vt 0.0832 0.8624 0.0000
vt 0.2867 0.7805 0.0000
vt 0.2879 0.6617 0.0000
vt 0.2047 0.5769 0.0000
vt 0.0860 0.5757 0.0000
vt 0.0012 0.6589 0.0000
vt 0.0000 0.7776 0.0000
# 178 texture coords

g Cylinder001
f 1/1/1 2/2/2 3/3/3 
f 3/3/3 4/4/1 1/1/1 
f 2/5/2 5/6/4 6/7/5 
f 6/7/5 3/8/3 2/5/2 
f 5/6/4 7/9/6 8/10/7 
f 8/10/7 6/7/5 5/6/4 
f 7/11/6 9/12/8 10/13/9 
f 10/13/9 8/14/7 7/11/6 
f 9/12/8 11/15/10 12/16/10 
f 12/16/10 10/13/9 9/12/8 
f 11/17/10 13/18/11 14/19/11 
f 14/19/11 12/20/10 11/17/10 
f 13/18/11 15/21/12 16/22/12 
f 16/22/12 14/19/11 13/18/11 
f 15/23/12 1/24/1 4/25/1 
f 4/25/1 16/26/12 15/23/12 
f 17/27/13 18/28/3 19/29/3 
f 19/29/3 20/30/14 17/27/13 
f 18/28/3 21/31/15 22/32/15 
f 22/32/15 19/29/3 18/28/3 
f 21/31/15 23/33/6 24/34/6 
f 24/34/6 22/32/15 21/31/15 
f 23/35/6 25/36/9 26/37/9 
f 26/37/9 24/38/6 23/35/6 
f 25/36/9 27/39/16 28/40/16 
f 28/40/16 26/37/9 25/36/9 
f 27/41/16 29/42/17 30/43/17 
f 30/43/17 28/39/16 27/41/16 
f 29/42/17 31/26/18 32/44/12 
f 32/44/12 30/43/17 29/42/17 
f 31/45/18 17/27/13 20/30/14 
f 20/30/14 32/46/12 31/45/18 
f 33/47/1 34/48/2 35/49/2 
f 35/49/2 36/50/19 33/47/1 
f 34/51/2 37/52/4 38/53/4 
f 38/53/4 35/54/2 34/51/2 
f 37/52/4 39/55/7 40/56/7 
f 40/56/7 38/53/4 37/52/4 
f 39/54/7 41/53/8 42/57/20 
f 42/57/20 40/58/7 39/54/7 
f 41/53/8 43/56/10 44/59/10 
f 44/59/10 42/57/20 41/53/8 
f 43/8/10 45/7/21 46/60/21 
f 46/60/21 44/61/10 43/8/10 
f 45/7/21 47/10/12 48/62/12 
f 48/62/12 46/60/21 45/7/21 
f 47/63/12 33/47/1 36/50/19 
f 36/50/19 48/28/12 47/63/12 
f 49/64/14 50/41/2 51/39/3 
f 51/39/3 52/36/19 49/64/14 
f 50/44/2 53/65/4 54/66/5 
f 54/66/5 51/67/3 50/44/2 
f 53/65/4 55/68/6 56/69/7 
f 56/69/7 54/66/5 53/65/4 
f 55/39/6 57/43/8 58/70/9 
f 58/70/9 56/40/7 55/39/6 
f 57/43/8 59/44/16 60/67/10 
f 60/67/10 58/70/9 57/43/8 
f 59/26/16 61/71/11 62/65/22 
f 62/65/22 60/44/10 59/26/16 
f 61/71/11 63/72/12 64/68/18 
f 64/68/18 62/65/22 61/71/11 
f 63/14/12 49/64/14 52/36/19 
f 52/36/19 64/35/18 63/14/12 
f 65/60/19 66/62/3 67/48/3 
f 67/48/3 68/47/14 65/60/19 
f 66/73/3 69/74/15 70/75/15 
f 70/75/15 67/45/3 66/73/3 
f 69/74/15 71/76/7 72/77/7 
f 72/77/7 70/75/15 69/74/15 
f 71/58/7 73/57/9 74/18/8 
f 74/18/8 72/17/7 71/58/7 
f 73/57/9 75/59/16 76/21/16 
f 76/21/16 74/18/8 73/57/9 
f 75/78/16 77/79/17 78/80/17 
f 78/80/17 76/41/16 75/78/16 
f 77/79/17 79/81/18 80/82/18 
f 80/82/18 78/80/17 77/79/17 
f 79/61/18 65/60/19 68/47/14 
f 68/47/14 80/63/18 79/61/18 
f 81/83/23 82/84/23 83/85/23 
f 83/85/23 84/86/23 85/87/23 
f 85/87/23 86/88/23 87/89/23 
f 83/85/23 85/87/23 87/89/23 
f 81/83/23 83/85/23 87/89/23 
f 88/90/23 81/83/23 87/89/23 
f 89/91/24 90/92/24 91/93/24 
f 91/93/24 92/94/24 93/95/24 
f 93/95/24 94/96/24 95/97/24 
f 91/93/24 93/95/24 95/97/24 
f 89/91/24 91/93/24 95/97/24 
f 96/98/24 89/91/24 95/97/24 
f 87/89/25 86/88/25 2/99/25 
f 2/99/25 1/100/25 87/89/25 
f 86/88/23 85/87/23 5/101/23 
f 5/101/25 2/99/25 86/88/25 
f 85/87/26 84/86/26 7/102/26 
f 7/102/27 5/101/27 85/87/27 
f 84/86/27 83/85/27 9/103/27 
f 9/103/26 7/102/26 84/86/26 
f 83/85/25 82/84/25 11/104/25 
f 11/104/26 9/103/26 83/85/26 
f 82/84/23 81/83/23 13/105/23 
f 13/105/25 11/104/25 82/84/25 
f 81/83/26 88/90/26 15/106/26 
f 15/106/27 13/105/27 81/83/27 
f 88/90/26 87/89/26 1/100/26 
f 1/100/26 15/106/26 88/90/26 
f 18/107/24 17/108/24 4/109/24 
f 4/109/24 3/110/24 18/107/24 
f 17/108/24 31/111/24 16/112/24 
f 16/112/24 4/109/24 17/108/24 
f 31/111/28 29/113/28 14/114/28 
f 14/114/29 16/112/29 31/111/29 
f 29/113/24 27/115/24 12/116/24 
f 12/116/30 14/114/30 29/113/30 
f 27/115/29 25/117/29 10/118/29 
f 10/118/29 12/116/29 27/115/29 
f 25/117/29 23/119/29 8/120/29 
f 8/120/29 10/118/29 25/117/29 
f 23/119/28 21/121/28 6/122/28 
f 6/122/29 8/120/29 23/119/29 
f 21/121/24 18/107/24 3/110/24 
f 3/110/30 6/122/30 21/121/30 
f 20/123/23 19/124/23 34/125/23 
f 34/125/23 33/126/23 20/123/23 
f 19/124/23 22/127/23 37/128/23 
f 37/128/23 34/125/23 19/124/23 
f 22/127/27 24/129/27 39/130/27 
f 39/130/27 37/128/27 22/127/27 
f 24/129/23 26/131/23 41/132/23 
f 41/132/27 39/130/27 24/129/27 
f 26/131/23 28/133/23 43/134/23 
f 43/134/23 41/132/23 26/131/23 
f 28/133/23 30/135/23 45/136/23 
f 45/136/23 43/134/23 28/133/23 
f 30/135/23 32/137/23 47/138/23 
f 47/138/23 45/136/23 30/135/23 
f 32/137/23 20/123/23 33/126/23 
f 33/126/23 47/138/23 32/137/23 
f 50/139/24 49/140/24 36/141/24 
f 36/141/24 35/142/24 50/139/24 
f 49/140/24 63/143/24 48/144/24 
f 48/144/24 36/141/24 49/140/24 
f 63/143/24 61/145/24 46/146/24 
f 46/146/24 48/144/24 63/143/24 
f 61/145/24 59/147/24 44/148/24 
f 44/148/24 46/146/24 61/145/24 
f 59/147/24 57/149/24 42/150/24 
f 42/150/24 44/148/24 59/147/24 
f 57/149/24 55/151/24 40/152/24 
f 40/152/24 42/150/24 57/149/24 
f 55/151/24 53/153/24 38/154/24 
f 38/154/24 40/152/24 55/151/24 
f 53/153/24 50/139/24 35/142/24 
f 35/142/24 38/154/24 53/153/24 
f 52/155/23 51/156/23 66/157/23 
f 66/157/23 65/158/23 52/155/23 
f 51/156/23 54/159/23 69/160/23 
f 69/160/23 66/157/23 51/156/23 
f 54/159/23 56/161/23 71/162/23 
f 71/162/23 69/160/23 54/159/23 
f 56/161/23 58/163/23 73/164/23 
f 73/164/23 71/162/23 56/161/23 
f 58/163/23 60/165/23 75/166/23 
f 75/166/23 73/164/23 58/163/23 
f 60/165/23 62/167/23 77/168/23 
f 77/168/23 75/166/23 60/165/23 
f 62/167/23 64/169/23 79/170/23 
f 79/170/23 77/168/23 62/167/23 
f 64/169/23 52/155/23 65/158/23 
f 65/158/23 79/170/23 64/169/23 
f 89/91/24 96/98/24 68/171/24 
f 68/171/24 67/172/24 89/91/24 
f 96/98/24 95/97/24 80/173/24 
f 80/173/24 68/171/24 96/98/24 
f 95/97/24 94/96/24 78/174/24 
f 78/174/24 80/173/24 95/97/24 
f 94/96/24 93/95/24 76/175/24 
f 76/175/24 78/174/24 94/96/24 
f 93/95/24 92/94/24 74/176/24 
f 74/176/24 76/175/24 93/95/24 
f 92/94/24 91/93/24 72/177/24 
f 72/177/24 74/176/24 92/94/24 
f 91/93/24 90/92/24 70/178/24 
f 70/178/24 72/177/24 91/93/24 
f 90/92/24 89/91/24 67/172/24 
f 67/172/24 70/178/24 90/92/24 
# 188 faces

